<svg width="19" height="19" viewBox="0 0 19 19" fill="none" xmlns="http://www.w3.org/2000/svg">
<path fill-rule="evenodd" clip-rule="evenodd" d="M6.03424 7.35354C6.08649 7.40593 6.14857 7.44749 6.21691 7.47584C6.28524 7.5042 6.35851 7.5188 6.43249 7.5188C6.50648 7.5188 6.57974 7.5042 6.64808 7.47584C6.71642 7.44749 6.77849 7.40593 6.83074 7.35354L9.80749 4.37567L12.7842 7.35354C12.8899 7.45917 13.0331 7.5185 13.1825 7.5185C13.3319 7.5185 13.4751 7.45917 13.5807 7.35354C13.6864 7.24792 13.7457 7.10467 13.7457 6.95529C13.7457 6.80592 13.6864 6.66267 13.5807 6.55704L10.2057 3.18204C10.1535 3.12966 10.0914 3.0881 10.0231 3.05974C9.95474 3.03138 9.88148 3.01679 9.80749 3.01679C9.7335 3.01679 9.66024 3.03138 9.59191 3.05974C9.52357 3.0881 9.46149 3.12966 9.40924 3.18204L6.03424 6.55704C5.98186 6.60929 5.9403 6.67137 5.91194 6.73971C5.88358 6.80804 5.86899 6.88131 5.86899 6.95529C5.86899 7.02928 5.88358 7.10254 5.91194 7.17088C5.9403 7.23922 5.98186 7.30129 6.03424 7.35354Z" fill="white"/>
<path fill-rule="evenodd" clip-rule="evenodd" d="M9.8075 15.3928C9.95668 15.3928 10.0998 15.3336 10.2052 15.2281C10.3107 15.1226 10.37 14.9795 10.37 14.8303V4.70532C10.37 4.55614 10.3107 4.41306 10.2052 4.30757C10.0998 4.20209 9.95668 4.14282 9.8075 4.14282C9.65831 4.14282 9.51524 4.20209 9.40975 4.30757C9.30426 4.41306 9.245 4.55614 9.245 4.70532V14.8303C9.245 14.9795 9.30426 15.1226 9.40975 15.2281C9.51524 15.3336 9.65831 15.3928 9.8075 15.3928Z" fill="white"/>
</svg>
