<svg width="68" height="47" viewBox="0 0 68 47" fill="none" xmlns="http://www.w3.org/2000/svg">
<rect width="68" height="47" rx="14" fill="#F4F4F4"/>
<g clip-path="url(#clip0_238_9723)">
<path d="M15.9731 27.6445C15.9731 27.0068 15.98 25.3023 15.9643 25.0923C15.978 22.5559 14.1315 20.7667 12.9649 20.9062C12.1577 20.9762 11.4812 21.3049 11.118 22.2506C10.7813 23.1319 11.0823 24.3042 12.2016 24.5792C13.3985 24.8746 14.0974 25.1204 14.6032 25.4672C15.2229 25.8917 15.7288 26.7028 15.7423 27.6455" fill="#0060AF"/>
<path d="M16.4508 31.5C14.3404 31.5 12.1715 30.9809 10.0055 29.9541L9.95236 29.928L9.92694 29.874C8.95494 27.8248 8.44092 25.5836 8.44092 23.3908C8.44092 21.2013 8.93385 19.056 9.90658 17.0096L9.9333 16.9553L9.98746 16.9281C11.9911 15.9802 14.1466 15.5 16.3959 15.5C18.4913 15.5 20.7291 16.0346 22.8663 17.0486L22.9212 17.073L22.9465 17.1284C23.9371 19.2153 24.4595 21.4559 24.4595 23.6124C24.4595 25.7604 23.9579 27.9076 22.9661 29.9932L22.94 30.048L22.8848 30.0734C20.9118 31.0063 18.6867 31.5 16.4508 31.5ZM10.206 29.6732C12.3102 30.6617 14.4087 31.1609 16.4508 31.1609C18.6161 31.1609 20.7695 30.6882 22.6864 29.7922C23.6386 27.7712 24.1212 25.6912 24.1212 23.6124C24.1212 21.5252 23.6175 19.354 22.6645 17.3286C20.5904 16.3548 18.4243 15.8384 16.3959 15.8384C14.2182 15.8384 12.1309 16.2997 10.1878 17.2097C9.25506 19.1932 8.78033 21.2716 8.78033 23.3908C8.78033 25.5141 9.27369 27.6861 10.206 29.6732Z" fill="#0060AF"/>
<path d="M15.4728 27.6455C15.4767 26.8281 15.0199 26.1053 14.4228 25.7169C13.8932 25.3736 13.1822 25.148 12.0351 24.8575C11.6805 24.7669 11.3096 24.5657 11.1948 24.3092C10.8911 24.6149 10.8359 25.302 10.8894 25.7036C10.9515 26.1683 11.4952 26.9343 12.314 26.9643C12.814 26.9843 13.4462 26.8568 13.7493 26.7925C14.2723 26.6797 15.0997 27.0068 15.2315 27.6445" fill="#0060AF"/>
<path d="M16.3959 16.9532C15.0076 16.9532 13.8084 17.8676 13.8128 19.4498C13.8171 20.7803 14.8885 21.4926 15.2708 22.0013C15.8485 22.768 16.1612 23.6754 16.1937 25.0639C16.2189 26.1689 16.2176 27.2601 16.2233 27.6468H16.5297C16.5244 27.2422 16.5105 26.0838 16.5264 25.0297C16.5472 23.6408 16.8712 22.768 17.4492 22.0013C17.8348 21.4926 18.9053 20.7803 18.9076 19.4498C18.9128 17.8676 17.7143 16.9532 16.3273 16.9532" fill="#0060AF"/>
<path d="M16.7483 27.6445C16.7483 27.0068 16.741 25.3023 16.7565 25.0923C16.7429 22.5559 18.5883 20.7667 19.7559 20.9062C20.5631 20.9762 21.2388 21.3049 21.6031 22.2506C21.9395 23.1319 21.6367 24.3042 20.5187 24.5792C19.3213 24.8746 18.6232 25.1204 18.1162 25.4672C17.4971 25.8917 17.0266 26.7028 17.0121 27.6455" fill="#0060AF"/>
<path d="M17.2481 27.6455C17.2437 26.8281 17.7004 26.1053 18.2958 25.7169C18.8275 25.3736 19.5394 25.148 20.6855 24.8575C21.0408 24.7669 21.4112 24.5657 21.524 24.3092C21.8292 24.6149 21.8842 25.302 21.8308 25.7036C21.7674 26.1683 21.2251 26.9343 20.4077 26.9643C19.9079 26.9843 19.2724 26.8568 18.9705 26.7925C18.4496 26.6797 17.6198 27.0068 17.4875 27.6445" fill="#0060AF"/>
<path d="M17.6764 30.2845L17.4988 28.9899L17.9276 28.925C18.032 28.9107 18.1591 28.9289 18.2099 28.9942C18.2661 29.0624 18.2833 29.1188 18.2941 29.2083C18.3103 29.3189 18.2783 29.4468 18.1535 29.5106V29.5145C18.2928 29.5145 18.377 29.6144 18.4015 29.7832C18.4051 29.8188 18.4156 29.9049 18.4051 29.9768C18.3768 30.1477 18.2746 30.2027 18.1023 30.2268L17.6764 30.2845ZM17.9524 30.0527C18.0033 30.0454 18.0548 30.0427 18.0951 30.017C18.1568 29.9768 18.1512 29.8907 18.1426 29.8268C18.1211 29.6863 18.0844 29.6329 17.9352 29.655L17.8415 29.6694L17.9009 30.0599L17.9524 30.0527ZM17.8626 29.4545C17.9194 29.4453 17.9963 29.4385 18.0284 29.3847C18.0452 29.3488 18.0667 29.3202 18.0525 29.2403C18.035 29.1455 18.0036 29.0868 17.8831 29.1096L17.7709 29.1276L17.8151 29.4594" fill="#0060AF"/>
<path d="M19.534 29.5058C19.5373 29.5299 19.5412 29.5568 19.5426 29.5808C19.5773 29.817 19.534 30.0124 19.2682 30.0662C18.8754 30.1418 18.8001 29.898 18.7309 29.5568L18.6941 29.3721C18.6399 29.0456 18.6167 28.7983 18.9997 28.7222C19.2156 28.6828 19.3583 28.7686 19.4177 28.9832C19.4269 29.0153 19.4385 29.047 19.4428 29.0792L19.2078 29.1276C19.1807 29.047 19.1447 28.9029 19.039 28.915C18.8492 28.9378 18.9119 29.1736 18.9314 29.2722L19.002 29.6266C19.0233 29.7337 19.0654 29.905 19.2296 29.8719C19.3629 29.8452 19.3049 29.6378 19.293 29.5529" fill="#0060AF"/>
<path d="M19.9109 29.8976L19.8296 28.5579L20.1453 28.4617L20.8072 29.6269L20.5587 29.7011L20.4018 29.405L20.1258 29.4878L20.1615 29.8245L19.9109 29.8976ZM20.1027 29.2714L20.3022 29.2138L20.0373 28.6717" fill="#0060AF"/>
<path d="M12.1131 28.8847C12.2118 28.5688 12.3004 28.3363 12.6773 28.4396C12.8791 28.4959 13.0042 28.5847 12.9983 28.8188C12.9973 28.8709 12.9801 28.924 12.9688 28.9755L12.7341 28.9107C12.7649 28.7815 12.7844 28.6789 12.6249 28.6299C12.4406 28.5794 12.3957 28.8025 12.3703 28.8989L12.2748 29.2501C12.2445 29.3544 12.2081 29.5267 12.3703 29.5712C12.5043 29.6072 12.5856 29.4758 12.6342 29.284L12.4699 29.2406L12.5267 29.0373L12.9128 29.1614L12.7295 29.8383L12.5518 29.7901L12.5918 29.647H12.5868C12.505 29.764 12.4052 29.7763 12.3179 29.7596C11.9318 29.6553 11.9721 29.4033 12.0642 29.0666" fill="#0060AF"/>
<path d="M13.5498 29.4565L13.4336 30.0072L13.1719 29.9507L13.4508 28.6648L13.8969 28.7655C14.158 28.8217 14.2369 28.9378 14.1999 29.1768C14.1788 29.314 14.1111 29.4619 13.9457 29.4499L13.944 29.4476C14.0838 29.4965 14.0956 29.5669 14.0712 29.6887C14.0607 29.7404 13.988 30.0548 14.0382 30.1055L14.0399 30.144L13.7691 30.0735C13.7578 29.9864 13.7961 29.8297 13.8113 29.743C13.8266 29.6663 13.851 29.5581 13.773 29.5175C13.7119 29.485 13.6892 29.4866 13.6202 29.4707L13.5498 29.4565ZM13.5945 29.2573L13.7707 29.3048C13.8777 29.3202 13.9372 29.2648 13.9583 29.1357C13.9774 29.0173 13.9527 28.971 13.8566 28.9481L13.6677 28.9098" fill="#0060AF"/>
<path d="M15.2285 28.9521L15.4873 28.9821L15.3758 29.8861C15.3216 30.1727 15.2107 30.298 14.895 30.2588C14.5738 30.2183 14.4975 30.0721 14.517 29.7832L14.6292 28.88L14.8901 28.9098L14.7781 29.7929C14.7663 29.8888 14.744 30.0309 14.9149 30.048C15.0664 30.0596 15.1008 29.9593 15.1178 29.8347" fill="#0060AF"/>
<path d="M15.7727 30.3083L15.8506 29.0156L16.3478 29.0371C16.5828 29.0486 16.6443 29.2403 16.637 29.4232C16.6302 29.5344 16.5954 29.6586 16.4983 29.726C16.4187 29.7832 16.3165 29.7968 16.2216 29.7922L16.0595 29.7832L16.0272 30.325L15.7727 30.3083ZM16.0669 29.586L16.1986 29.5934C16.3056 29.5973 16.3766 29.555 16.3858 29.3981C16.391 29.2474 16.334 29.2218 16.1953 29.2158L16.0909 29.2122" fill="#0060AF"/>
<path d="M50.8447 18.2027L48.8683 21.7852C48.1223 21.1803 47.2114 20.735 46.0492 20.735C43.2988 20.735 42.1817 22.7825 42.1817 24.2248C42.1817 25.2954 42.8836 26.875 45.3308 26.875C46.358 26.875 47.8183 26.1613 48.2386 25.8366L46.2839 29.993C45.3522 30.1786 45.0461 30.2937 44.2574 30.3181C39.8773 30.4486 38.1073 27.7614 38.1086 25.0154C38.1115 21.3854 41.3431 16.9707 46.7003 16.9707C47.0286 16.9707 47.4301 17.0841 47.7734 17.2097L48.1203 16.7666" fill="#0060AF"/>
<path d="M58.9995 16.879L59.5591 29.9001H55.3941L55.3916 27.6669H52.5516L51.6169 29.9001H47.0999L51.8222 20.6019L50.7574 20.595L52.7807 16.879H58.9995ZM55.3646 20.8624L53.7589 24.6498H55.413" fill="#0060AF"/>
<path d="M35.4791 16.879C37.5417 16.8905 38.7072 18.0087 38.7072 19.6239C38.7072 21.1129 37.478 22.431 36.1286 23.1126C37.5179 23.6226 37.638 24.8746 37.638 25.7604C37.638 27.9004 35.4879 29.9001 32.6931 29.9001H26.5979L28.9755 20.7314L27.9989 20.7258L29.9953 16.879C29.9953 16.879 33.8019 16.8674 35.4791 16.879ZM33.4555 22.1582C33.8822 22.1582 34.6355 22.0504 34.8238 21.2257C35.0302 20.3305 34.3232 20.3065 33.9841 20.3065L32.7724 20.3012L32.3498 22.1583L33.4555 22.1582ZM31.7423 24.4592L31.1844 26.5992H32.6112C33.1726 26.5992 33.9376 26.321 34.1251 25.6245C34.3102 24.9261 33.7754 24.4592 33.2161 24.4592" fill="#0060AF"/>
</g>
<defs>
<clipPath id="clip0_238_9723">
<rect width="51.1182" height="16" fill="white" transform="translate(8.44092 15.5)"/>
</clipPath>
</defs>
</svg>
