<svg width="24" height="24" viewBox="0 0 24 24" fill="none" xmlns="http://www.w3.org/2000/svg">
<g clip-path="url(#clip0_48_111)">
<path d="M12 23.6667C12.7735 23.6667 13.5154 23.3594 14.0624 22.8124C14.6094 22.2654 14.9166 21.5235 14.9166 20.75H9.08331C9.08331 21.5235 9.3906 22.2654 9.93758 22.8124C10.4846 23.3594 11.2264 23.6667 12 23.6667Z" fill="white"/>
<path fill-rule="evenodd" clip-rule="evenodd" d="M12 3.13039L10.8377 3.36518C9.51934 3.63381 8.33425 4.34971 7.48305 5.39172C6.63186 6.43372 6.16683 7.73783 6.16669 9.08331C6.16669 9.99914 5.97127 12.2873 5.49731 14.5404C5.26398 15.6589 4.94898 16.8241 4.53044 17.8333H19.4696C19.0511 16.8241 18.7375 15.6604 18.5027 14.5404C18.0288 12.2873 17.8334 9.99914 17.8334 9.08331C17.8329 7.73808 17.3677 6.43432 16.5165 5.39261C15.6654 4.3509 14.4805 3.63522 13.1623 3.36664L12 3.12893V3.13039ZM21.0709 17.8333C21.3961 18.4852 21.7723 19.0014 22.2084 19.2916H1.79169C2.22773 19.0014 2.60398 18.4852 2.92919 17.8333C4.24169 15.2083 4.70835 10.3666 4.70835 9.08331C4.70835 5.55414 7.21669 2.60831 10.549 1.93602C10.5286 1.73324 10.551 1.52845 10.6147 1.33485C10.6783 1.14125 10.7818 0.963146 10.9186 0.812017C11.0553 0.660887 11.2221 0.540091 11.4084 0.457418C11.5947 0.374745 11.7962 0.332031 12 0.332031C12.2038 0.332031 12.4053 0.374745 12.5916 0.457418C12.7779 0.540091 12.9448 0.660887 13.0815 0.812017C13.2182 0.963146 13.3217 1.14125 13.3854 1.33485C13.449 1.52845 13.4714 1.73324 13.4511 1.93602C15.0994 2.27129 16.5812 3.16592 17.6456 4.46841C18.7099 5.77091 19.2915 7.40123 19.2917 9.08331C19.2917 10.3666 19.7584 15.2083 21.0709 17.8333Z" fill="white"/>
<circle cx="17.8334" cy="6.16667" r="4.16667" fill="#FFC400"/>
</g>
<defs>
<clipPath id="clip0_48_111">
<rect width="23.3333" height="23.3333" fill="white" transform="translate(0.333313 0.333374)"/>
</clipPath>
</defs>
</svg>
