<svg width="24" height="24" viewBox="0 0 24 24" fill="none" xmlns="http://www.w3.org/2000/svg">
<path d="M18.7041 8.20402C18.9154 7.99268 19.2021 7.87395 19.501 7.87395C19.7999 7.87395 20.0865 7.99268 20.2978 8.20402C20.5092 8.41537 20.6279 8.70201 20.6279 9.0009C20.6279 9.29979 20.5092 9.58643 20.2978 9.79777L12.7978 17.2978C12.6933 17.4027 12.5691 17.4859 12.4324 17.5427C12.2956 17.5994 12.149 17.6287 12.001 17.6287C11.8529 17.6287 11.7063 17.5994 11.5696 17.5427C11.4328 17.4859 11.3086 17.4027 11.2041 17.2978L3.7041 9.79777C3.49276 9.58643 3.37402 9.29979 3.37402 9.0009C3.37402 8.70201 3.49276 8.41537 3.7041 8.20402C3.91544 7.99268 4.20209 7.87395 4.50097 7.87395C4.79986 7.87395 5.08651 7.99268 5.29785 8.20402L12 14.9062L18.7041 8.20402Z" fill="black"/>
</svg>
