<svg width="17" height="17" viewBox="0 0 17 17" fill="none" xmlns="http://www.w3.org/2000/svg">
<g clip-path="url(#clip0_89_381)">
<path d="M16.8731 7.91987C16.2511 6.55987 13.8123 2.125 8.49985 2.125C3.18735 2.125 0.748556 6.55987 0.126639 7.91987C0.043154 8.10213 -6.10352e-05 8.30024 -6.10352e-05 8.50071C-6.10352e-05 8.70118 0.043154 8.89929 0.126639 9.08154C0.748556 10.4401 3.18735 14.875 8.49985 14.875C13.8123 14.875 16.2511 10.4401 16.8731 9.08012C16.9564 8.89807 16.9995 8.70021 16.9995 8.5C16.9995 8.29979 16.9564 8.10193 16.8731 7.91987ZM8.49985 12.75C7.65928 12.75 6.83758 12.5007 6.13867 12.0337C5.43977 11.5667 4.89503 10.903 4.57336 10.1264C4.25169 9.34982 4.16752 8.49529 4.33151 7.67087C4.4955 6.84645 4.90027 6.08917 5.49464 5.4948C6.08902 4.90042 6.84629 4.49565 7.67071 4.33166C8.49513 4.16768 9.34967 4.25184 10.1263 4.57351C10.9028 4.89518 11.5666 5.43992 12.0336 6.13883C12.5006 6.83774 12.7498 7.65943 12.7498 8.5C12.7487 9.62682 12.3006 10.7072 11.5038 11.504C10.707 12.3007 9.62667 12.7489 8.49985 12.75Z" fill="black"/>
<path d="M8.50008 11.333C10.0649 11.333 11.3334 10.0645 11.3334 8.49971C11.3334 6.93491 10.0649 5.66638 8.50008 5.66638C6.93527 5.66638 5.66675 6.93491 5.66675 8.49971C5.66675 10.0645 6.93527 11.333 8.50008 11.333Z" fill="black"/>
</g>
<defs>
<clipPath id="clip0_89_381">
<rect width="17" height="17" fill="white"/>
</clipPath>
</defs>
</svg>
