<svg width="17" height="17" viewBox="0 0 17 17" fill="none" xmlns="http://www.w3.org/2000/svg">
<g clip-path="url(#clip0_106_345)">
<path d="M16.8731 7.91989C16.1888 6.43573 15.1864 5.12022 13.9371 4.06656L16.0847 1.91889L15.0824 0.915894L12.7499 3.24631C11.4589 2.49953 9.99132 2.11234 8.49991 2.12502C3.18741 2.12502 0.748617 6.55989 0.1267 7.91989C0.0432151 8.10215 0 8.30026 0 8.50073C0 8.70119 0.0432151 8.8993 0.1267 9.08156C0.811047 10.5657 1.8134 11.8812 3.06274 12.9349L0.915784 15.0826L1.91737 16.0841L4.24991 13.7537C5.54094 14.5005 7.0085 14.8877 8.49991 14.875C13.8124 14.875 16.2512 10.4401 16.8731 9.08014C16.9564 8.89809 16.9996 8.70023 16.9996 8.50002C16.9996 8.29981 16.9564 8.10194 16.8731 7.91989ZM4.24991 8.50002C4.24857 7.71986 4.46235 6.95444 4.86776 6.28789C5.27317 5.62134 5.8545 5.07947 6.54786 4.72185C7.24122 4.36422 8.01976 4.20469 8.7979 4.26079C9.57603 4.31688 10.3236 4.58643 10.9585 5.03981L9.93003 6.06831C9.49826 5.80793 9.00411 5.66915 8.49991 5.66669C7.74846 5.66669 7.02779 5.9652 6.49644 6.49655C5.96509 7.0279 5.66658 7.74857 5.66658 8.50002C5.66904 9.00422 5.80782 9.49837 6.0682 9.93014L5.0397 10.9586C4.52613 10.2417 4.24995 9.38193 4.24991 8.50002ZM8.49991 12.75C7.618 12.75 6.75823 12.4738 6.04128 11.9602L7.06978 10.9317C7.50156 11.1921 7.99571 11.3309 8.49991 11.3334C9.25136 11.3334 9.97203 11.0348 10.5034 10.5035C11.0347 9.97213 11.3332 9.25146 11.3332 8.50002C11.3308 7.99582 11.192 7.50166 10.9316 7.06989L11.9601 6.04139C12.4135 6.67629 12.683 7.42389 12.7391 8.20203C12.7952 8.98017 12.6357 9.75871 12.2781 10.4521C11.9205 11.1454 11.3786 11.7268 10.712 12.1322C10.0455 12.5376 9.28006 12.7514 8.49991 12.75Z" fill="black"/>
</g>
<defs>
<clipPath id="clip0_106_345">
<rect width="17" height="17" fill="white"/>
</clipPath>
</defs>
</svg>
