<svg width="24" height="24" viewBox="0 0 24 24" fill="none" xmlns="http://www.w3.org/2000/svg">
<rect width="23.615" height="24" rx="11.8075" transform="matrix(1 0 0 -1 0.0374756 24)" fill="white" fill-opacity="0.15"/>
<path fill-rule="evenodd" clip-rule="evenodd" d="M8.07175 10.1483C8.124 10.2006 8.18607 10.2422 8.25441 10.2706C8.32275 10.2989 8.39601 10.3135 8.47 10.3135C8.54399 10.3135 8.61725 10.2989 8.68559 10.2706C8.75393 10.2422 8.816 10.2006 8.86825 10.1483L11.845 7.17038L14.8217 10.1483C14.9274 10.2539 15.0706 10.3132 15.22 10.3132C15.3694 10.3132 15.5126 10.2539 15.6182 10.1483C15.7239 10.0426 15.7832 9.89937 15.7832 9.75C15.7832 9.60063 15.7239 9.45737 15.6182 9.35175L12.2432 5.97675C12.191 5.92437 12.1289 5.88281 12.0606 5.85445C11.9922 5.82609 11.919 5.8115 11.845 5.8115C11.771 5.8115 11.6977 5.82609 11.6294 5.85445C11.5611 5.88281 11.499 5.92437 11.4467 5.97675L8.07175 9.35175C8.01937 9.404 7.9778 9.46608 7.94945 9.53441C7.92109 9.60275 7.90649 9.67601 7.90649 9.75C7.90649 9.82399 7.92109 9.89725 7.94945 9.96559C7.9778 10.0339 8.01937 10.096 8.07175 10.1483Z" fill="white"/>
<path fill-rule="evenodd" clip-rule="evenodd" d="M11.845 18.1875C11.9942 18.1875 12.1372 18.1282 12.2427 18.0227C12.3482 17.9173 12.4075 17.7742 12.4075 17.625V7.5C12.4075 7.35082 12.3482 7.20774 12.2427 7.10225C12.1372 6.99676 11.9942 6.9375 11.845 6.9375C11.6958 6.9375 11.5527 6.99676 11.4472 7.10225C11.3417 7.20774 11.2825 7.35082 11.2825 7.5V17.625C11.2825 17.7742 11.3417 17.9173 11.4472 18.0227C11.5527 18.1282 11.6958 18.1875 11.845 18.1875Z" fill="white"/>
</svg>
