<svg width="25" height="24" viewBox="0 0 25 24" fill="none" xmlns="http://www.w3.org/2000/svg">
<rect x="0.711182" width="23.615" height="24" rx="11.8075" fill="white" fill-opacity="0.15"/>
<path fill-rule="evenodd" clip-rule="evenodd" d="M8.74546 13.8517C8.79771 13.7994 8.85978 13.7578 8.92812 13.7294C8.99646 13.7011 9.06972 13.6865 9.14371 13.6865C9.21769 13.6865 9.29096 13.7011 9.35929 13.7294C9.42763 13.7578 9.4897 13.7994 9.54196 13.8517L12.5187 16.8296L15.4955 13.8517C15.6011 13.7461 15.7443 13.6868 15.8937 13.6868C16.0431 13.6868 16.1863 13.7461 16.292 13.8517C16.3976 13.9574 16.4569 14.1006 16.4569 14.25C16.4569 14.3994 16.3976 14.5426 16.292 14.6482L12.917 18.0232C12.8647 18.0756 12.8026 18.1172 12.7343 18.1455C12.666 18.1739 12.5927 18.1885 12.5187 18.1885C12.4447 18.1885 12.3715 18.1739 12.3031 18.1455C12.2348 18.1172 12.1727 18.0756 12.1205 18.0232L8.74546 14.6482C8.69307 14.596 8.65151 14.5339 8.62315 14.4656C8.5948 14.3972 8.5802 14.324 8.5802 14.25C8.5802 14.176 8.5948 14.1027 8.62315 14.0344C8.65151 13.9661 8.69307 13.904 8.74546 13.8517Z" fill="white"/>
<path fill-rule="evenodd" clip-rule="evenodd" d="M12.5187 5.8125C12.6679 5.8125 12.8109 5.87176 12.9164 5.97725C13.0219 6.08274 13.0812 6.22582 13.0812 6.375V16.5C13.0812 16.6492 13.0219 16.7923 12.9164 16.8977C12.8109 17.0032 12.6679 17.0625 12.5187 17.0625C12.3695 17.0625 12.2264 17.0032 12.1209 16.8977C12.0154 16.7923 11.9562 16.6492 11.9562 16.5V6.375C11.9562 6.22582 12.0154 6.08274 12.1209 5.97725C12.2264 5.87176 12.3695 5.8125 12.5187 5.8125Z" fill="white"/>
</svg>
