<svg width="37" height="37" viewBox="0 0 37 37" fill="none" xmlns="http://www.w3.org/2000/svg">
<path d="M27.0408 12.8113C29.1354 12.8113 30.8333 11.1133 30.8333 9.01876C30.8333 6.92422 29.1354 5.22626 27.0408 5.22626C24.9463 5.22626 23.2483 6.92422 23.2483 9.01876C23.2483 11.1133 24.9463 12.8113 27.0408 12.8113Z" stroke="#F0F7F5" stroke-opacity="0.8" stroke-width="1.5" stroke-miterlimit="10" stroke-linecap="round" stroke-linejoin="round"/>
<path d="M9.95917 12.8113C12.0537 12.8113 13.7517 11.1133 13.7517 9.01876C13.7517 6.92422 12.0537 5.22626 9.95917 5.22626C7.86463 5.22626 6.16666 6.92422 6.16666 9.01876C6.16666 11.1133 7.86463 12.8113 9.95917 12.8113Z" stroke="#F0F7F5" stroke-opacity="0.8" stroke-width="1.5" stroke-miterlimit="10" stroke-linecap="round" stroke-linejoin="round"/>
<path d="M27.0408 31.7738C29.1354 31.7738 30.8333 30.0758 30.8333 27.9813C30.8333 25.8867 29.1354 24.1888 27.0408 24.1888C24.9463 24.1888 23.2483 25.8867 23.2483 27.9813C23.2483 30.0758 24.9463 31.7738 27.0408 31.7738Z" stroke="#F0F7F5" stroke-opacity="0.8" stroke-width="1.5" stroke-miterlimit="10" stroke-linecap="round" stroke-linejoin="round"/>
<path d="M9.95917 31.7738C12.0537 31.7738 13.7517 30.0758 13.7517 27.9813C13.7517 25.8867 12.0537 24.1888 9.95917 24.1888C7.86463 24.1888 6.16666 25.8867 6.16666 27.9813C6.16666 30.0758 7.86463 31.7738 9.95917 31.7738Z" stroke="#F0F7F5" stroke-opacity="0.8" stroke-width="1.5" stroke-miterlimit="10" stroke-linecap="round" stroke-linejoin="round"/>
</svg>
