<svg width="37" height="46" viewBox="0 0 37 46" fill="none" xmlns="http://www.w3.org/2000/svg">
<path d="M27.0408 14.3113C29.9638 14.3113 32.3333 11.9417 32.3333 9.01876C32.3333 6.09578 29.9638 3.72626 27.0408 3.72626C24.1178 3.72626 21.7483 6.0958 21.7483 9.01876C21.7483 11.9417 24.1178 14.3113 27.0408 14.3113ZM9.95917 14.3113C12.8821 14.3113 15.2517 11.9417 15.2517 9.01876C15.2517 6.0958 12.8821 3.72626 9.95917 3.72626C7.03621 3.72626 4.66666 6.09578 4.66666 9.01876C4.66666 11.9417 7.03621 14.3113 9.95917 14.3113ZM27.0408 33.2738C29.9638 33.2738 32.3333 30.9042 32.3333 27.9813C32.3333 25.0583 29.9638 22.6888 27.0408 22.6888C24.1178 22.6888 21.7483 25.0583 21.7483 27.9813C21.7483 30.9042 24.1178 33.2738 27.0408 33.2738ZM9.95917 33.2738C12.8822 33.2738 15.2517 30.9042 15.2517 27.9813C15.2517 25.0583 12.8821 22.6888 9.95917 22.6888C7.03621 22.6888 4.66666 25.0583 4.66666 27.9813C4.66666 30.9042 7.03621 33.2738 9.95917 33.2738Z" stroke="white" stroke-width="3" stroke-miterlimit="10" stroke-linecap="round" stroke-linejoin="round"/>
<circle cx="19.5" cy="42.5" r="3.5" fill="white"/>
</svg>
