<svg width="16" height="16" viewBox="0 0 16 16" fill="none" xmlns="http://www.w3.org/2000/svg">
<path d="M3.63333 9.24L4.27586 9.62687L4.27754 9.62405L3.63333 9.24ZM2.86666 10.5133L2.22414 10.1265L2.22403 10.1267L2.86666 10.5133ZM3.58666 12.4667L3.34622 13.1771L3.349 13.178L3.58666 12.4667ZM12.4333 12.4667L12.1979 11.7546L12.1957 11.7553L12.4333 12.4667ZM13.1533 10.5133L13.7965 10.1275L13.7959 10.1265L13.1533 10.5133ZM12.3867 9.24L11.7369 9.61486L11.7441 9.62686L12.3867 9.24ZM9.24666 2.13333L9.03756 2.85359C9.312 2.93327 9.60787 2.85006 9.80055 2.63901C9.99323 2.42796 10.0492 2.12575 9.94496 1.85968L9.24666 2.13333ZM8.60666 2L8.51364 2.74422L8.51642 2.74455L8.60666 2ZM6.78 2.13333L6.0817 1.85968C5.97742 2.1258 6.03345 2.42806 6.2262 2.63911C6.41894 2.85016 6.71489 2.93331 6.98935 2.85352L6.78 2.13333ZM8.01333 1.19C5.39245 1.19 3.26333 3.31912 3.26333 5.94H4.76333C4.76333 4.14755 6.22088 2.69 8.01333 2.69V1.19ZM3.26333 5.94V7.86667H4.76333V5.94H3.26333ZM3.26333 7.86667C3.26333 7.97964 3.23642 8.16533 3.17816 8.37523C3.11996 8.58489 3.04716 8.75859 2.98912 8.85595L4.27754 9.62405C4.42617 9.37475 4.54337 9.06512 4.6235 8.77644C4.70357 8.48801 4.76333 8.16037 4.76333 7.86667H3.26333ZM2.99081 8.85314L2.22414 10.1265L3.50919 10.9002L4.27586 9.62686L2.99081 8.85314ZM2.22403 10.1267C1.88132 10.6962 1.80345 11.3484 2.02083 11.9354C2.23788 12.5216 2.72048 12.9653 3.34622 13.1771L3.82711 11.7563C3.58619 11.6747 3.47211 11.5351 3.4275 11.4146C3.38321 11.295 3.37867 11.1171 3.5093 10.9L2.22403 10.1267ZM3.349 13.178C6.37658 14.1896 9.64341 14.1896 12.671 13.178L12.1957 11.7553C9.47658 12.6638 6.54341 12.6638 3.82433 11.7553L3.349 13.178ZM12.6687 13.1788C13.9345 12.7603 14.4822 11.2704 13.7964 10.1275L12.5102 10.8992C12.7045 11.223 12.5455 11.6397 12.1979 11.7546L12.6687 13.1788ZM13.7959 10.1265L13.0292 8.85314L11.7441 9.62686L12.5108 10.9002L13.7959 10.1265ZM13.0363 8.86521C12.9784 8.76484 12.9061 8.58811 12.8483 8.37747C12.7903 8.16602 12.7633 7.97986 12.7633 7.86667H11.2633C11.2633 8.16014 11.323 8.48732 11.4017 8.7742C11.4806 9.06189 11.5949 9.36849 11.737 9.61479L13.0363 8.86521ZM12.7633 7.86667V5.94H11.2633V7.86667H12.7633ZM12.7633 5.94C12.7633 3.32579 10.6275 1.19 8.01333 1.19V2.69C9.79912 2.69 11.2633 4.15422 11.2633 5.94H12.7633ZM9.45577 1.41308C9.21651 1.34361 8.96315 1.28772 8.69691 1.25545L8.51642 2.74455C8.69017 2.76561 8.86348 2.80306 9.03756 2.85359L9.45577 1.41308ZM8.69969 1.25579C7.9641 1.16384 7.24753 1.21638 6.57064 1.41315L6.98935 2.85352C7.45913 2.71696 7.96923 2.67616 8.51364 2.74421L8.69969 1.25579ZM7.47829 2.40699C7.56218 2.19294 7.77047 2.04333 8.01333 2.04333V0.543335C7.13619 0.543335 6.38449 1.08707 6.0817 1.85968L7.47829 2.40699ZM8.01333 2.04333C8.25619 2.04333 8.46449 2.19294 8.54837 2.40699L9.94496 1.85968C9.64218 1.08707 8.89047 0.543335 8.01333 0.543335V2.04333ZM9.26333 12.7067C9.26333 13.3925 8.69912 13.9567 8.01333 13.9567V15.4567C9.52754 15.4567 10.7633 14.2209 10.7633 12.7067H9.26333ZM8.01333 13.9567C7.67415 13.9567 7.35585 13.8152 7.13033 13.5897L6.06967 14.6503C6.56414 15.1448 7.25918 15.4567 8.01333 15.4567V13.9567ZM7.13033 13.5897C6.9048 13.3641 6.76333 13.0459 6.76333 12.7067H5.26333C5.26333 13.4608 5.57519 14.1559 6.06967 14.6503L7.13033 13.5897Z" fill="black"/>
</svg>
