<svg width="4" height="16" viewBox="0 0 4 16" fill="none" xmlns="http://www.w3.org/2000/svg">
<path fill-rule="evenodd" clip-rule="evenodd" d="M0.0271775 13.498C0.0127194 14.3263 0.672224 15.0095 1.50022 15.0239C2.32822 15.0384 3.01117 14.3786 3.02562 13.5503C3.04008 12.722 2.38058 12.0388 1.55258 12.0244C0.724581 12.0099 0.0416355 12.6697 0.0271775 13.498ZM1.70873 3.02573C0.880737 3.01127 0.221233 2.32809 0.235691 1.49979C0.250149 0.671485 0.933094 0.0117304 1.76109 0.0261831C2.58909 0.0406359 3.24859 0.723823 3.23414 1.55212C3.21968 2.38042 2.53673 3.04018 1.70873 3.02573ZM1.604 9.0248C0.776006 9.01035 0.116502 8.32716 0.13096 7.49886C0.145418 6.67056 0.828364 6.01081 1.65636 6.02526C2.48436 6.03971 3.14386 6.7229 3.12941 7.5512C3.11495 8.3795 2.432 9.03925 1.604 9.0248Z" fill="black" fill-opacity="0.55"/>
</svg>
