<svg width="16" height="16" viewBox="0 0 16 16" fill="none" xmlns="http://www.w3.org/2000/svg">
<g clip-path="url(#clip0_152_751)">
<path fill-rule="evenodd" clip-rule="evenodd" d="M0 2C0 0.895431 0.89543 0 2 0H14C15.1046 0 16 0.895429 16 2V5.72247C16 10.3918 12.9546 14.5152 8.49173 15.8883C8.17133 15.987 7.82867 15.987 7.50826 15.8883C3.04539 14.5152 0 10.3918 0 5.72247V2ZM8 7.42857C9.42016 7.42857 10.5714 6.2773 10.5714 4.85714C10.5714 3.43698 9.42016 2.28571 8 2.28571C6.57984 2.28571 5.42857 3.43698 5.42857 4.85714C5.42857 6.2773 6.57984 7.42857 8 7.42857ZM12.7449 10.7344C11.5925 9.40921 9.89407 8.57143 7.99995 8.57143C6.10586 8.57143 4.40744 9.4092 3.25502 10.7344C4.36562 12.3696 6.01525 13.6322 7.99998 14.2461C9.9847 13.6322 11.6343 12.3696 12.7449 10.7344Z" fill="black"/>
</g>
<defs>
<clipPath id="clip0_152_751">
<rect width="16" height="16" fill="white"/>
</clipPath>
</defs>
</svg>
