<svg width="24" height="24" viewBox="0 0 24 24" fill="none" xmlns="http://www.w3.org/2000/svg">
<path d="M15.0002 2.39999V5.99999C15.0002 6.66274 15.5374 7.19999 16.2002 7.19999H19.8002M18.0002 4.19999C17.4661 3.72214 16.9119 3.15537 16.562 2.78727C16.3292 2.54233 16.0076 2.39999 15.6696 2.39999H6.59991C5.27443 2.39999 4.19992 3.4745 4.19991 4.79998L4.19981 19.1999C4.19981 20.5254 5.27432 21.5999 6.5998 21.5999L17.3998 21.6C18.7253 21.6 19.7998 20.5255 19.7999 19.2L19.8002 6.47783C19.8002 6.17099 19.6831 5.87603 19.4702 5.65513C19.0764 5.24664 18.4188 4.57451 18.0002 4.19999Z" stroke="black" stroke-width="2" stroke-linecap="round" stroke-linejoin="round"/>
</svg>
