<svg width="24" height="24" viewBox="0 0 24 24" fill="none" xmlns="http://www.w3.org/2000/svg">
<g clip-path="url(#clip0_89_363)">
<path d="M21 24.0006H18V19.0006C18 18.4702 17.7893 17.9615 17.4142 17.5864C17.0391 17.2113 16.5304 17.0006 16 17.0006H8C7.46957 17.0006 6.96086 17.2113 6.58579 17.5864C6.21071 17.9615 6 18.4702 6 19.0006V24.0006H3V19.0006C3.00159 17.675 3.52888 16.4042 4.46622 15.4668C5.40356 14.5295 6.67441 14.0022 8 14.0006H16C17.3256 14.0022 18.5964 14.5295 19.5338 15.4668C20.4711 16.4042 20.9984 17.675 21 19.0006V24.0006Z" fill="black"/>
<path d="M12.0001 11.9999C10.8134 11.9999 9.65334 11.648 8.66664 10.9887C7.67995 10.3294 6.91091 9.39234 6.45679 8.29598C6.00266 7.19963 5.88384 5.99323 6.11535 4.82934C6.34686 3.66545 6.91831 2.59635 7.75742 1.75724C8.59654 0.918125 9.66564 0.34668 10.8295 0.115169C11.9934 -0.116342 13.1998 0.00247765 14.2962 0.456603C15.3925 0.910729 16.3296 1.67976 16.9889 2.66646C17.6482 3.65315 18.0001 4.81319 18.0001 5.99988C17.9985 7.59069 17.3658 9.11589 16.2409 10.2408C15.1161 11.3656 13.5909 11.9983 12.0001 11.9999ZM12.0001 2.99988C11.4067 2.99988 10.8267 3.17583 10.3334 3.50547C9.84001 3.83512 9.45549 4.30365 9.22842 4.85183C9.00136 5.40001 8.94195 6.00321 9.05771 6.58515C9.17346 7.16709 9.45919 7.70164 9.87874 8.1212C10.2983 8.54076 10.8328 8.82648 11.4148 8.94224C11.9967 9.05799 12.5999 8.99858 13.1481 8.77152C13.6963 8.54446 14.1648 8.15994 14.4945 7.66659C14.8241 7.17324 15.0001 6.59322 15.0001 5.99988C15.0001 5.20423 14.684 4.44117 14.1214 3.87856C13.5588 3.31595 12.7957 2.99988 12.0001 2.99988Z" fill="black"/>
</g>
<defs>
<clipPath id="clip0_89_363">
<rect width="24" height="24" fill="white"/>
</clipPath>
</defs>
</svg>
