<svg width="14" height="14" viewBox="0 0 14 14" fill="none" xmlns="http://www.w3.org/2000/svg">
<g clip-path="url(#clip0_106_387)">
<path fill-rule="evenodd" clip-rule="evenodd" d="M6.21769 0.226033C6.45324 0.0820473 6.72396 0.00585938 7.00003 0.00585938C7.2761 0.00585938 7.54681 0.0820473 7.78236 0.226033C8.01791 0.370019 8.20915 0.576216 8.33503 0.821919L8.33726 0.826281L13.8365 11.8249C13.9513 12.053 14.0064 12.3075 13.9957 12.5627C13.985 12.8182 13.9092 13.0667 13.7754 13.2846C13.6416 13.5025 13.4544 13.6826 13.2314 13.8078C13.0085 13.933 12.7572 13.9991 12.5015 13.9999H1.49851C1.24282 13.9991 0.991563 13.933 0.768612 13.8078C0.545662 13.6826 0.358416 13.5025 0.224657 13.2846C0.0908986 13.0667 0.0150678 12.8182 0.00436625 12.5627C-0.0063228 12.3075 0.0483198 12.0538 0.163109 11.8257L5.665 0.821908C5.79087 0.576205 5.98215 0.370019 6.21769 0.226033ZM7 4.125C7.41421 4.125 7.75 4.46079 7.75 4.875V8.125C7.75 8.53921 7.41421 8.875 7 8.875C6.58579 8.875 6.25 8.53921 6.25 8.125V4.875C6.25 4.46079 6.58579 4.125 7 4.125ZM8 10.875C8 11.4273 7.55228 11.875 7 11.875C6.44772 11.875 6 11.4273 6 10.875C6 10.3227 6.44772 9.875 7 9.875C7.55228 9.875 8 10.3227 8 10.875Z" fill="#FF0F0F"/>
</g>
<defs>
<clipPath id="clip0_106_387">
<rect width="14" height="14" fill="white"/>
</clipPath>
</defs>
</svg>
